# xmcd CD database file
#
# Track frame offsets:
#	150
#	18848
#	39543
#	61420
#	79358
#	102453
#	123393
#	143943
#	166695
#	189030
#	211743
#
# Disc length: 3068 seconds
#
# Revision: 0
# Processed by: cddbd v1.5.1PL0 Copyright (c) Steve Scherf et al.
# Submitted via: CDex 1.51
#
DISCID=8b0bfa0b
DTITLE=TimeSlip-Rendezvous - SPUTNIK
DYEAR=1997
DGENRE=Rock
TTITLE0=FREEDOM
TTITLE1=WASTING MY LIFE
TTITLE2=架空の思い出
TTITLE3=ラジオ局まで
TTITLE4=DREAM OF A MIRACLE
TTITLE5=DON'T FORGET ME
TTITLE6=金魚鉢から愛をこめて
TTITLE7=コメット
TTITLE8=MONDAY MORNINIG ANGEL
TTITLE9=君が抱きしめてくれる
TTITLE10=春風
EXTD=YEAR: 1997
EXTT0=
EXTT1=
EXTT2=
EXTT3=
EXTT4=
EXTT5=
EXTT6=
EXTT7=
EXTT8=
EXTT9=
EXTT10=
PLAYORDER=
